<?xml version="1.0" encoding="utf-8"?>
<!-- Generator: Adobe Illustrator 25.0.0, SVG Export Plug-In . SVG Version: 6.00 Build 0)  -->
<svg version="1.1" id="Слой_1" xmlns="http://www.w3.org/2000/svg" xmlns:xlink="http://www.w3.org/1999/xlink" x="0px" y="0px"
	 viewBox="0 0 1000 1000" style="enable-background:new 0 0 1000 1000;" xml:space="preserve">
<style type="text/css">
	.st0{fill-rule:evenodd;clip-rule:evenodd;fill:#CCCCCC;}
</style>
<g>
	<g>
		<g>
			<path class="st0" d="M856.1,261.32c-19.98,5.7-38.52,15.28-54.84,28.54c-6.32-3.66-12.84-6.72-19.78-9.38
				c-18.54-7.14-37.92-10.4-56.86-10.2c-26.08,0.2-51.78,6.92-74.4,19.36c-1.02-18.34-5.1-36.48-12.24-54.02
				c-4.9-12.02-11-23.24-18.14-33.84h-0.2c-19.56-29.14-47.9-52.38-82.14-67.46c4.68-7.34,8.96-14.88,12.64-22.82
				c5.3-11.42,9.38-23.04,12.24-34.86C684.68,93.76,790.26,163.06,856.1,261.32z"/>
			<path class="st0" d="M337.34,972.08C140.84,904,0,717.08,0,497.56C0,384.64,37.3,280.48,100.08,196.7
				c29.96,5.1,54.84,15.28,74.6,30.16c13.66,10.2,24.86,22.82,33.64,37.5c13.04,22.22,18.76,46.88,19.56,69.92
				c1.22,27.72-4.48,52.8-12.22,68.08c-3.26,6.32-3.66,13.86-1.02,20.58c2.44,6.72,7.74,12.02,14.26,14.68
				c13.86,5.3,26.5,12.84,37.92,22.02c46.06,37.3,60.94,97.64,37.1,150.42c-5.1,11-9.18,22.22-12.24,33.64
				c-0.62,1.42-1.02,3.06-1.22,4.68c-7.74,28.34-9.58,56.86-5.7,84.18c4.08,29.56,14.48,57.48,31.38,82.14
				c16.1,23.04,25.48,49.74,28.54,77.66C347.74,918.46,345.3,945.78,337.34,972.08z"/>
			<path class="st0" d="M1000,567.06C966.16,811.66,756.22,1000,502.44,1000c-40.16,0-79.08-4.68-116.38-13.66
				c7.54-25.28,11-51.16,10.4-77.04c-0.62-44.24-13.24-87.44-38.32-123.72c-0.62-1.02-1.42-2.04-2.04-3.06
				c-21.4-32.82-27.52-74.4-17.74-116.38c79.28-78.06,199.34-79.9,293.92-3.26c7.94,6.52,15.5,13.66,22.82,21.8
				c4.9,5.3,11.62,8.16,18.76,8.16c1.42,0,2.86,0,4.08-0.2c8.56-1.42,15.7-7.14,19.36-14.88c9.38-21.2,22.82-40.98,39.74-58.7
				c17.74-18.54,44.24-38.94,76.44-53.82c32.4-15.08,70.52-24.46,111.5-20.58v0.2C949.04,546.88,974.32,553.82,1000,567.06z"/>
			<path class="st0" d="M927.44,493.28c-38.32-3.26-74.6,2.86-107.02,14.06c-51.56,17.74-93.56,48.72-120.06,76.24
				c-12.64,13.24-23.64,27.32-33.02,42.2c-1.02-0.82-2.04-1.64-3.06-2.44c-93.16-75.62-207.5-88.26-300.04-38.94
				c5.1-33.64,0.2-67.88-13.86-98.46c35.68-61.96,119.86-95.18,183.44-70.32c37.1,14.48,79.08-0.82,97.44-35.06
				c1.02-1.22,1.84-2.44,2.44-3.88c0.2-0.4,0.4-0.62,0.4-1.02c21.82-45.26,79.5-66.44,129.02-47.5c4.08,1.42,7.94,3.26,11.62,5.3
				c4.9,2.44,9.38,5.5,13.46,8.76c10.6,8.36,25.68,6.94,34.66-2.86c15.5-17.12,37.1-28.12,60.14-31.6
				C910.92,363.64,927.02,426.62,927.44,493.28z"/>
			<path class="st0" d="M587.64,354.66c0,0.2-0.2,0.2-0.2,0.4c-6.12,12.44-21.82,18.34-35.06,13.04
				c-79.7-31.18-179.38,2.04-232.36,71.96c-6.32-7.14-13.24-13.66-21-19.98c-8.96-7.14-18.34-13.46-28.34-18.96
				c10.6-34.86,12.22-79.7-0.82-122.1c-4.08-13.86-9.98-27.52-17.52-40.56c-9.58-16.1-23.24-33.42-42.8-48.92
				c76.02-72.56,179.38-117.2,292.9-117.2c2.64,0,5.3,0,7.94,0.2c-1.64,5.92-3.88,11.62-6.52,17.32
				c-6.72,14.48-15.9,27.52-27.32,38.94c-6.52,6.52-8.96,16.1-6.52,25.08c2.64,8.96,9.78,15.7,18.96,17.74
				c7.34,1.84,14.48,3.88,21.2,6.52c1.02,0.4,2.04,0.82,2.86,1.22c0.2,0,0.2,0,0.2,0c36.28,14.68,63.8,41.38,77.46,75.42
				C603.76,287,602.52,322.46,587.64,354.66z"/>
		</g>
	</g>
</g>
</svg>
